<svg xmlns="http://www.w3.org/2000/svg" width="320" height="270" viewBox="0 0 320 270"><defs><filter id="magnifier-a" width="100%" height="100%" x="0%" y="0%" filterUnits="objectBoundingBox"><feGaussianBlur in="SourceGraphic"/></filter></defs><path fill="#373737" d="M293,71.2874815 C302.9,90.4874815 307.3,108.987481 307.2,131.187481 C307.1,163.187481 296.1,192.487481 275,216.687481 C253.8,241.087481 220.9,257.887481 190.5,259.787481 C176.7,260.687481 175.6,260.687481 171.5,260.387481 C145,258.687481 120.5,249.587481 99.3,233.687481 C70.9,212.487481 53.9,183.787481 48.5,148.187481 C47.5666667,142.120815 35.9666667,103.154148 13.7,31.2874815 L10.6,30.5874815 C1.4,28.5874815 -2.68024544,17.4220627 2.46810767,10.1461639 C7.61646079,2.87026514 16.9031948,3.36870406 20.6942911,6.13018662 C20.6942911,6.13018662 21.4628607,6.6492849 23,7.68748147 C103.521083,5.87781307 144.048291,4.93964554 144.581624,4.87297888 C145.381624,4.67297888 160.8,1.08748147 174,0.687481468 C224,-0.912518532 269.9,26.2874815 293,71.2874815 Z M178,6.18748147 C108.964406,6.18748147 53,62.1518877 53,131.187481 C53,200.223075 108.964406,256.187481 178,256.187481 C247.035594,256.187481 303,200.223075 303,131.187481 C303,62.1518877 247.035594,6.18748147 178,6.18748147 Z M13.9890248,28.6205771 C20.064157,28.6205771 24.9890248,23.6957094 24.9890248,17.6205771 C24.9890248,11.5454449 20.064157,6.62057714 13.9890248,6.62057714 C7.91389251,6.62057714 2.98902476,11.5454449 2.98902476,17.6205771 C2.98902476,23.6957094 7.91389251,28.6205771 13.9890248,28.6205771 Z" filter="url(#magnifier-a)" transform="matrix(1 0 0 -1 7 264.187)"/></svg>